<mxfile host="Electron" modified="2023-10-29T22:21:22.518Z" agent="Mozilla/5.0 (Macintosh; Intel Mac OS X 10_15_7) AppleWebKit/537.36 (KHTML, like Gecko) draw.io/21.6.8 Chrome/114.0.5735.289 Electron/25.5.0 Safari/537.36" etag="HaJVfx7bcbMNhcL9S2Ru" version="21.6.8" type="device">
  <diagram id="C5RBs43oDa-KdzZeNtuy" name="Pathfinder">
    <mxGraphModel dx="1694" dy="912" grid="1" gridSize="10" guides="1" tooltips="1" connect="1" arrows="1" fold="1" page="1" pageScale="1" pageWidth="3000" pageHeight="3000" math="0" shadow="0">
      <root>
        <mxCell id="WIyWlLk6GJQsqaUBKTNV-0" />
        <mxCell id="WIyWlLk6GJQsqaUBKTNV-1" parent="WIyWlLk6GJQsqaUBKTNV-0" />
        <mxCell id="3PrKBhBURB4lyzn13pjP-1" value="Ready Hook Handler" style="rounded=1;whiteSpace=wrap;html=1;" vertex="1" parent="WIyWlLk6GJQsqaUBKTNV-1">
          <mxGeometry x="40" y="80" width="120" height="40" as="geometry" />
        </mxCell>
        <mxCell id="3PrKBhBURB4lyzn13pjP-2" value="Pobieranie worldSystemVersion do zmiennej currentVersion" style="rounded=1;whiteSpace=wrap;html=1;" vertex="1" parent="WIyWlLk6GJQsqaUBKTNV-1">
          <mxGeometry x="40" y="160" width="120" height="60" as="geometry" />
        </mxCell>
        <mxCell id="3PrKBhBURB4lyzn13pjP-3" value="" style="endArrow=classic;html=1;rounded=0;exitX=0.5;exitY=1;exitDx=0;exitDy=0;entryX=0.5;entryY=0;entryDx=0;entryDy=0;" edge="1" parent="WIyWlLk6GJQsqaUBKTNV-1" source="3PrKBhBURB4lyzn13pjP-1" target="3PrKBhBURB4lyzn13pjP-2">
          <mxGeometry width="50" height="50" relative="1" as="geometry">
            <mxPoint x="-80" y="380" as="sourcePoint" />
            <mxPoint x="-30" y="330" as="targetPoint" />
          </mxGeometry>
        </mxCell>
        <mxCell id="3PrKBhBURB4lyzn13pjP-11" value="" style="edgeStyle=orthogonalEdgeStyle;rounded=0;orthogonalLoop=1;jettySize=auto;html=1;" edge="1" parent="WIyWlLk6GJQsqaUBKTNV-1" source="3PrKBhBURB4lyzn13pjP-6" target="3PrKBhBURB4lyzn13pjP-9">
          <mxGeometry relative="1" as="geometry" />
        </mxCell>
        <mxCell id="3PrKBhBURB4lyzn13pjP-6" value="Zapisanie zainicjowanej wersji świata" style="rounded=1;whiteSpace=wrap;html=1;" vertex="1" parent="WIyWlLk6GJQsqaUBKTNV-1">
          <mxGeometry x="40" y="280" width="120" height="60" as="geometry" />
        </mxCell>
        <mxCell id="3PrKBhBURB4lyzn13pjP-7" value="" style="endArrow=classic;html=1;rounded=0;exitX=0.5;exitY=1;exitDx=0;exitDy=0;entryX=0.5;entryY=0;entryDx=0;entryDy=0;" edge="1" parent="WIyWlLk6GJQsqaUBKTNV-1" source="3PrKBhBURB4lyzn13pjP-2" target="3PrKBhBURB4lyzn13pjP-6">
          <mxGeometry width="50" height="50" relative="1" as="geometry">
            <mxPoint x="-80" y="380" as="sourcePoint" />
            <mxPoint x="-30" y="330" as="targetPoint" />
          </mxGeometry>
        </mxCell>
        <mxCell id="3PrKBhBURB4lyzn13pjP-13" value="" style="edgeStyle=orthogonalEdgeStyle;rounded=0;orthogonalLoop=1;jettySize=auto;html=1;" edge="1" parent="WIyWlLk6GJQsqaUBKTNV-1" source="3PrKBhBURB4lyzn13pjP-9" target="3PrKBhBURB4lyzn13pjP-12">
          <mxGeometry relative="1" as="geometry" />
        </mxCell>
        <mxCell id="3PrKBhBURB4lyzn13pjP-15" value="" style="edgeStyle=orthogonalEdgeStyle;rounded=0;orthogonalLoop=1;jettySize=auto;html=1;" edge="1" parent="WIyWlLk6GJQsqaUBKTNV-1" source="3PrKBhBURB4lyzn13pjP-9" target="3PrKBhBURB4lyzn13pjP-14">
          <mxGeometry relative="1" as="geometry" />
        </mxCell>
        <mxCell id="3PrKBhBURB4lyzn13pjP-9" value="Czy&lt;br&gt;Użytkownik&lt;br&gt;jest aktywnym&lt;br&gt;GM?" style="rhombus;whiteSpace=wrap;html=1;" vertex="1" parent="WIyWlLk6GJQsqaUBKTNV-1">
          <mxGeometry x="40" y="400" width="120" height="120" as="geometry" />
        </mxCell>
        <mxCell id="3PrKBhBURB4lyzn13pjP-12" value="Exit" style="rounded=1;whiteSpace=wrap;html=1;" vertex="1" parent="WIyWlLk6GJQsqaUBKTNV-1">
          <mxGeometry x="280" y="430" width="120" height="60" as="geometry" />
        </mxCell>
        <mxCell id="3PrKBhBURB4lyzn13pjP-19" value="" style="edgeStyle=orthogonalEdgeStyle;rounded=0;orthogonalLoop=1;jettySize=auto;html=1;entryX=0;entryY=0.5;entryDx=0;entryDy=0;" edge="1" parent="WIyWlLk6GJQsqaUBKTNV-1" source="3PrKBhBURB4lyzn13pjP-14" target="3PrKBhBURB4lyzn13pjP-18">
          <mxGeometry relative="1" as="geometry" />
        </mxCell>
        <mxCell id="3PrKBhBURB4lyzn13pjP-14" value="Uruchomienie MigrationRunner" style="rounded=1;whiteSpace=wrap;html=1;" vertex="1" parent="WIyWlLk6GJQsqaUBKTNV-1">
          <mxGeometry x="40" y="570" width="120" height="60" as="geometry" />
        </mxCell>
        <mxCell id="3PrKBhBURB4lyzn13pjP-24" value="" style="edgeStyle=orthogonalEdgeStyle;rounded=0;orthogonalLoop=1;jettySize=auto;html=1;" edge="1" parent="WIyWlLk6GJQsqaUBKTNV-1" source="3PrKBhBURB4lyzn13pjP-18" target="3PrKBhBURB4lyzn13pjP-20">
          <mxGeometry relative="1" as="geometry" />
        </mxCell>
        <mxCell id="3PrKBhBURB4lyzn13pjP-35" value="" style="edgeStyle=orthogonalEdgeStyle;rounded=0;orthogonalLoop=1;jettySize=auto;html=1;" edge="1" parent="WIyWlLk6GJQsqaUBKTNV-1" source="3PrKBhBURB4lyzn13pjP-18" target="3PrKBhBURB4lyzn13pjP-34">
          <mxGeometry relative="1" as="geometry" />
        </mxCell>
        <mxCell id="3PrKBhBURB4lyzn13pjP-18" value="Czy migracja jest potrzebna?" style="rhombus;whiteSpace=wrap;html=1;rounded=1;" vertex="1" parent="WIyWlLk6GJQsqaUBKTNV-1">
          <mxGeometry x="445" y="535" width="130" height="130" as="geometry" />
        </mxCell>
        <mxCell id="3PrKBhBURB4lyzn13pjP-30" value="" style="edgeStyle=orthogonalEdgeStyle;rounded=0;orthogonalLoop=1;jettySize=auto;html=1;" edge="1" parent="WIyWlLk6GJQsqaUBKTNV-1" source="3PrKBhBURB4lyzn13pjP-20" target="3PrKBhBURB4lyzn13pjP-29">
          <mxGeometry relative="1" as="geometry" />
        </mxCell>
        <mxCell id="3PrKBhBURB4lyzn13pjP-20" value="Zakutalizowanie worldSystemVersion" style="whiteSpace=wrap;html=1;rounded=1;" vertex="1" parent="WIyWlLk6GJQsqaUBKTNV-1">
          <mxGeometry x="700" y="570" width="120" height="60" as="geometry" />
        </mxCell>
        <mxCell id="3PrKBhBURB4lyzn13pjP-22" value="Nie" style="text;html=1;strokeColor=none;fillColor=none;align=center;verticalAlign=middle;whiteSpace=wrap;rounded=0;" vertex="1" parent="WIyWlLk6GJQsqaUBKTNV-1">
          <mxGeometry x="180" y="430" width="60" height="30" as="geometry" />
        </mxCell>
        <mxCell id="3PrKBhBURB4lyzn13pjP-23" value="Nie" style="text;html=1;strokeColor=none;fillColor=none;align=center;verticalAlign=middle;whiteSpace=wrap;rounded=0;" vertex="1" parent="WIyWlLk6GJQsqaUBKTNV-1">
          <mxGeometry x="600" y="562.5" width="60" height="30" as="geometry" />
        </mxCell>
        <mxCell id="3PrKBhBURB4lyzn13pjP-27" value="Wyświetlenie ostrzeżenia o&lt;br&gt;niestabilnych modułach" style="whiteSpace=wrap;html=1;rounded=1;" vertex="1" parent="WIyWlLk6GJQsqaUBKTNV-1">
          <mxGeometry x="1120" y="570" width="120" height="60" as="geometry" />
        </mxCell>
        <mxCell id="3PrKBhBURB4lyzn13pjP-31" value="" style="edgeStyle=orthogonalEdgeStyle;rounded=0;orthogonalLoop=1;jettySize=auto;html=1;" edge="1" parent="WIyWlLk6GJQsqaUBKTNV-1" source="3PrKBhBURB4lyzn13pjP-29" target="3PrKBhBURB4lyzn13pjP-27">
          <mxGeometry relative="1" as="geometry" />
        </mxCell>
        <mxCell id="3PrKBhBURB4lyzn13pjP-29" value="Czy są niestabilne moduły w użyciu?" style="rhombus;whiteSpace=wrap;html=1;rounded=1;" vertex="1" parent="WIyWlLk6GJQsqaUBKTNV-1">
          <mxGeometry x="940" y="537.5" width="120" height="125" as="geometry" />
        </mxCell>
        <mxCell id="3PrKBhBURB4lyzn13pjP-32" value="Tak" style="text;html=1;strokeColor=none;fillColor=none;align=center;verticalAlign=middle;whiteSpace=wrap;rounded=0;" vertex="1" parent="WIyWlLk6GJQsqaUBKTNV-1">
          <mxGeometry x="1060" y="570" width="60" height="30" as="geometry" />
        </mxCell>
        <mxCell id="3PrKBhBURB4lyzn13pjP-33" value="Tak" style="text;html=1;strokeColor=none;fillColor=none;align=center;verticalAlign=middle;whiteSpace=wrap;rounded=0;" vertex="1" parent="WIyWlLk6GJQsqaUBKTNV-1">
          <mxGeometry x="100" y="530" width="60" height="30" as="geometry" />
        </mxCell>
        <mxCell id="3PrKBhBURB4lyzn13pjP-38" value="" style="edgeStyle=orthogonalEdgeStyle;rounded=0;orthogonalLoop=1;jettySize=auto;html=1;" edge="1" parent="WIyWlLk6GJQsqaUBKTNV-1" source="3PrKBhBURB4lyzn13pjP-34" target="3PrKBhBURB4lyzn13pjP-37">
          <mxGeometry relative="1" as="geometry" />
        </mxCell>
        <mxCell id="3PrKBhBURB4lyzn13pjP-41" value="" style="edgeStyle=orthogonalEdgeStyle;rounded=0;orthogonalLoop=1;jettySize=auto;html=1;" edge="1" parent="WIyWlLk6GJQsqaUBKTNV-1" source="3PrKBhBURB4lyzn13pjP-34" target="3PrKBhBURB4lyzn13pjP-40">
          <mxGeometry relative="1" as="geometry" />
        </mxCell>
        <mxCell id="3PrKBhBURB4lyzn13pjP-34" value="Czy currentVersion&lt;br&gt;jest większe&lt;br&gt;od&amp;nbsp;MINIMUM SAFE VERSION?" style="rhombus;whiteSpace=wrap;html=1;rounded=1;" vertex="1" parent="WIyWlLk6GJQsqaUBKTNV-1">
          <mxGeometry x="430" y="250" width="160" height="165" as="geometry" />
        </mxCell>
        <mxCell id="3PrKBhBURB4lyzn13pjP-36" value="Tak" style="text;html=1;strokeColor=none;fillColor=none;align=center;verticalAlign=middle;whiteSpace=wrap;rounded=0;" vertex="1" parent="WIyWlLk6GJQsqaUBKTNV-1">
          <mxGeometry x="510" y="480" width="60" height="30" as="geometry" />
        </mxCell>
        <mxCell id="3PrKBhBURB4lyzn13pjP-37" value="Pokazanie ostrzeżenia, że proces migracji może spowodować problemy" style="whiteSpace=wrap;html=1;rounded=1;" vertex="1" parent="WIyWlLk6GJQsqaUBKTNV-1">
          <mxGeometry x="210" y="282.5" width="120" height="100" as="geometry" />
        </mxCell>
        <mxCell id="3PrKBhBURB4lyzn13pjP-39" value="Nie" style="text;html=1;strokeColor=none;fillColor=none;align=center;verticalAlign=middle;whiteSpace=wrap;rounded=0;" vertex="1" parent="WIyWlLk6GJQsqaUBKTNV-1">
          <mxGeometry x="360" y="280" width="60" height="30" as="geometry" />
        </mxCell>
        <mxCell id="3PrKBhBURB4lyzn13pjP-44" value="" style="edgeStyle=orthogonalEdgeStyle;rounded=0;orthogonalLoop=1;jettySize=auto;html=1;" edge="1" parent="WIyWlLk6GJQsqaUBKTNV-1" source="3PrKBhBURB4lyzn13pjP-40" target="3PrKBhBURB4lyzn13pjP-43">
          <mxGeometry relative="1" as="geometry" />
        </mxCell>
        <mxCell id="3PrKBhBURB4lyzn13pjP-40" value="Przeprowaszenie migracji" style="whiteSpace=wrap;html=1;rounded=1;" vertex="1" parent="WIyWlLk6GJQsqaUBKTNV-1">
          <mxGeometry x="450" y="90" width="120" height="60" as="geometry" />
        </mxCell>
        <mxCell id="3PrKBhBURB4lyzn13pjP-43" value="Wyświetlenie rezultatu migracji" style="whiteSpace=wrap;html=1;rounded=1;" vertex="1" parent="WIyWlLk6GJQsqaUBKTNV-1">
          <mxGeometry x="700" y="90" width="120" height="60" as="geometry" />
        </mxCell>
        <mxCell id="3PrKBhBURB4lyzn13pjP-47" value="" style="endArrow=classic;html=1;rounded=0;exitX=0.5;exitY=0;exitDx=0;exitDy=0;entryX=0;entryY=0.5;entryDx=0;entryDy=0;" edge="1" parent="WIyWlLk6GJQsqaUBKTNV-1" source="3PrKBhBURB4lyzn13pjP-37" target="3PrKBhBURB4lyzn13pjP-40">
          <mxGeometry width="50" height="50" relative="1" as="geometry">
            <mxPoint x="460" y="440" as="sourcePoint" />
            <mxPoint x="510" y="390" as="targetPoint" />
            <Array as="points">
              <mxPoint x="270" y="120" />
            </Array>
          </mxGeometry>
        </mxCell>
        <mxCell id="3PrKBhBURB4lyzn13pjP-48" value="" style="endArrow=classic;html=1;rounded=0;entryX=0.5;entryY=0;entryDx=0;entryDy=0;exitX=0.5;exitY=1;exitDx=0;exitDy=0;" edge="1" parent="WIyWlLk6GJQsqaUBKTNV-1" source="3PrKBhBURB4lyzn13pjP-43" target="3PrKBhBURB4lyzn13pjP-20">
          <mxGeometry width="50" height="50" relative="1" as="geometry">
            <mxPoint x="460" y="350" as="sourcePoint" />
            <mxPoint x="510" y="300" as="targetPoint" />
          </mxGeometry>
        </mxCell>
        <mxCell id="3PrKBhBURB4lyzn13pjP-49" value="Tak" style="text;html=1;strokeColor=none;fillColor=none;align=center;verticalAlign=middle;whiteSpace=wrap;rounded=0;" vertex="1" parent="WIyWlLk6GJQsqaUBKTNV-1">
          <mxGeometry x="510" y="190" width="60" height="30" as="geometry" />
        </mxCell>
      </root>
    </mxGraphModel>
  </diagram>
</mxfile>
